<svg version="1.1" viewBox="0.0 0.0 179.96587926509187 171.95538057742783" fill="none" stroke="none" stroke-linecap="square" stroke-miterlimit="10" xmlns:xlink="http://www.w3.org/1999/xlink" xmlns="http://www.w3.org/2000/svg"><clipPath id="p.0"><path d="m0 0l179.96588 0l0 171.95538l-179.96588 0l0 -171.95538z" clip-rule="nonzero"/></clipPath><g clip-path="url(#p.0)"><path fill="#000000" fill-opacity="0.0" d="m0 0l179.96588 0l0 171.95538l-179.96588 0z" fill-rule="evenodd"/><path fill="#8b0000" d="m18.889135 18.96394l136.43433 0l0 136.43433l-136.43433 0z" fill-rule="evenodd"/><path fill="#a23333" d="m10.240157 10.3149605l153.73228 0l-8.648987 8.648979l-136.43433 0z" fill-rule="evenodd"/><path fill="#6f0000" d="m10.240157 164.04724l8.648978 -8.648972l136.43433 0l8.648987 8.648972z" fill-rule="evenodd"/><path fill="#b96666" d="m10.240157 10.3149605l8.648978 8.648979l0 136.43433l-8.648978 8.648972z" fill-rule="evenodd"/><path fill="#530000" d="m163.97244 10.3149605l0 153.73228l-8.648987 -8.648972l0 -136.43433z" fill-rule="evenodd"/><path fill="#000000" fill-opacity="0.0" d="m10.240157 10.3149605l153.73228 0l0 153.73228l-153.73228 0zm8.648978 8.648979l136.43433 0l0 136.43433l-136.43433 0zm-8.648978 -8.648979l8.648978 8.648979m-8.648978 145.0833l8.648978 -8.648972m145.08331 -145.08331l-8.648987 8.648979m8.648987 145.0833l-8.648987 -8.648972" fill-rule="evenodd"/><path fill="#000000" fill-opacity="0.0" d="m15.993439 11.913385l153.73228 0l0 153.73228l-153.73228 0z" fill-rule="evenodd"/><path fill="#000000" d="m71.35732 85.96526l-0.125 -21.75q0 -2.6874962 -1.578125 -5.140621q-1.578125 -2.453125 -5.109375 -2.453125q-5.21875 0 -5.21875 -4.3125q0 -4.703125 5.546875 -4.703125l4.8125 -0.140625l7.703125 0.390625l21.046875 -0.390625q12.90625 0 22.515625 6.71875q9.609367 6.71875 9.609367 19.499996q0 6.859375 -2.546875 12.3125q-2.5468674 5.453125 -6.1718674 8.578125q-3.625 3.109375 -8.0625 5.1875q-7.0625 3.203125 -12.625 3.203125q-5.546875 0 -10.953125 -1.21875q-5.40625 -1.234375 -5.40625 -4.390625q0 -4.578125 4.328125 -4.578125q0.984375 0 2.953125 0.515625q1.984375 0.515625 4.078125 0.515625q2.109375 0 5.125 -0.75q3.015625 -0.765625 6.125 -2.375q3.125 -1.609375 5.03125 -4.75q1.921875 -3.140625 1.921875 -7.390625q0 -7.53125 -6.15625 -14.078125q-6.15625 -6.562496 -17.171875 -6.562496q-2.453125 0 -3.296875 1.40625q-0.828125 1.40625 -0.828125 8.999996l-0.25 52.859375q0 12.484383 6.359375 13.234383q2.015625 0.234375 3.171875 0.234375q6.34375 -0.4375 6.34375 5.21875q0 4.828125 -5.65625 4.828125l-18.234375 -0.640625l-11.859375 0.515625q-6.6875 0 -6.6875 -4.0625q0 -4.03125 3.125 -5.171875q0.484375 -0.1875 0.84375 -0.375q0.375 -0.1875 1.390625 -0.390625q1.015625 -0.203125 1.375 -0.34375q0.359375 -0.15625 0.921875 -0.21875q0.5625 -0.078125 0.453125 0q-0.09375 0.078125 -0.140625 0.0625q-0.03125 -0.03125 0.078125 -0.28125q0.125 -0.265625 0.546875 -1.171875q0.421875 -0.921875 1.03125 -2.65625q0.625 -1.734375 1.125 -18.265633q0.515625 -16.546875 0.515625 -25.71875z" fill-rule="nonzero"/><g filter="url(#shadowFilter-p.1)"><use xlink:href="#p.1" transform="matrix(1.0 0.0 0.0 1.0 0.0 2.0)"/></g><defs><filter id="shadowFilter-p.1" filterUnits="userSpaceOnUse"><feGaussianBlur in="SourceAlpha" stdDeviation="2.0" result="blur"/><feComponentTransfer in="blur" color-interpolation-filters="sRGB"><feFuncR type="linear" slope="0" intercept="0.0"/><feFuncG type="linear" slope="0" intercept="0.0"/><feFuncB type="linear" slope="0" intercept="0.0"/><feFuncA type="linear" slope="0.5" intercept="0"/></feComponentTransfer></filter></defs><g id="p.1"><path fill="#000000" fill-opacity="0.0" d="m10.240157 6.3097115l153.73228 0l0 153.73228l-153.73228 0z" fill-rule="evenodd"/><path fill="#ffffff" d="m65.60404 80.36159l-0.125 -21.749996q0 -2.6875 -1.578125 -5.140625q-1.578125 -2.453125 -5.109375 -2.453125q-5.21875 0 -5.21875 -4.3125q0 -4.703125 5.546875 -4.703125l4.8125 -0.140625l7.703125 0.390625l21.046875 -0.390625q12.90625 0 22.515625 6.71875q9.609375 6.71875 9.609375 19.499996q0 6.859375 -2.546875 12.3125q-2.546875 5.453125 -6.171875 8.578125q-3.625 3.109375 -8.0625 5.1875q-7.0625 3.203125 -12.625 3.203125q-5.546875 0 -10.953125 -1.21875q-5.40625 -1.234375 -5.40625 -4.390625q0 -4.578125 4.328125 -4.578125q0.984375 0 2.953125 0.515625q1.984375 0.515625 4.078125 0.515625q2.109375 0 5.125 -0.75q3.015625 -0.765625 6.125 -2.375q3.125 -1.609375 5.03125 -4.75q1.921875 -3.140625 1.921875 -7.390625q0 -7.53125 -6.15625 -14.078121q-6.15625 -6.5625 -17.171875 -6.5625q-2.453125 0 -3.296875 1.40625q-0.828125 1.40625 -0.828125 9.0l-0.25 52.85937q0 12.484375 6.359375 13.234375q2.015625 0.234375 3.171875 0.234375q6.34375 -0.4375 6.34375 5.21875q0 4.828125 -5.65625 4.828125l-18.234375 -0.640625l-11.859375 0.515625q-6.6875 0 -6.6875 -4.0625q0 -4.03125 3.125 -5.171875q0.484375 -0.1875 0.84375 -0.375q0.375 -0.1875 1.390625 -0.390625q1.015625 -0.203125 1.375 -0.34375q0.359375 -0.15625 0.921875 -0.21875q0.5625 -0.078125 0.453125 0q-0.09375 0.078125 -0.140625 0.0625q-0.03125 -0.03125 0.078125 -0.28125q0.125 -0.265625 0.546875 -1.171875q0.421875 -0.921875 1.03125 -2.65625q0.625 -1.734375 1.125 -18.265625q0.515625 -16.546875 0.515625 -25.71875z" fill-rule="nonzero"/></g><path fill="#000000" fill-opacity="0.0" d="m10.238845 64.80052l0 0" fill-rule="evenodd"/><path stroke="#000000" stroke-width="1.0" stroke-linejoin="round" stroke-linecap="butt" d="m10.238845 64.80052l0 0" fill-rule="evenodd"/></g></svg>